<svg xmlns="http://www.w3.org/2000/svg" width="44" height="44" viewBox="0 0 44 44" fill="none">
    <circle cx="22" cy="22" r="22" fill="#012206"/>
    <mask id="mask0_18_45" style="mask-type:alpha" maskUnits="userSpaceOnUse" x="9" y="9" width="26" height="26">
    <rect x="9" y="9" width="26" height="26" fill="#D9D9D9"/>
    </mask>
    <g mask="url(#mask0_18_45)">
    <path d="M20.9844 31.6823V23.0427H20.9167C19.7738 23.0427 18.6756 22.8238 17.622 22.3859C16.5685 21.9481 15.6354 21.3229 14.8229 20.5104C14.0104 19.6979 13.3898 18.7649 12.9609 17.7113C12.5321 16.6577 12.3177 15.5595 12.3177 14.4166V12.3177H14.4167C15.5542 12.3177 16.6465 12.5366 17.6938 12.9745C18.741 13.4123 19.6708 14.0375 20.4833 14.85C21.0521 15.4187 21.5261 16.0462 21.9052 16.7323C22.2844 17.4184 22.5688 18.1496 22.7583 18.926C22.8667 18.7816 22.9818 18.6416 23.1037 18.5062C23.2255 18.3708 23.3542 18.2354 23.4896 18.1C24.3021 17.2875 25.2351 16.6623 26.2887 16.2245C27.3423 15.7866 28.4405 15.5677 29.5833 15.5677H31.6823V17.6666C31.6823 18.8095 31.4634 19.9077 31.0255 20.9613C30.5877 22.0149 29.9625 22.9479 29.15 23.7604C28.3375 24.5729 27.409 25.1936 26.3644 25.6224C25.3198 26.0512 24.2261 26.2656 23.0833 26.2656H23.0156V31.6823H20.9844ZM20.9979 20.9844C20.9979 20.0906 20.8287 19.2397 20.4901 18.4318C20.1516 17.6238 19.6708 16.9083 19.0479 16.2854C18.425 15.6625 17.7092 15.184 16.9005 14.85C16.0918 14.516 15.2413 14.3489 14.349 14.3489C14.349 15.2517 14.5115 16.1094 14.8365 16.9219C15.1615 17.7344 15.6354 18.4521 16.2583 19.075C16.8993 19.716 17.6261 20.1944 18.4386 20.5104C19.2511 20.8264 20.1042 20.9844 20.9979 20.9844ZM23.0156 24.2344C23.908 24.2344 24.7585 24.0719 25.5672 23.7469C26.3759 23.4219 27.0917 22.9479 27.7146 22.325C28.3375 21.7021 28.816 20.9844 29.15 20.1719C29.484 19.3594 29.6511 18.5017 29.6511 17.5989C28.7483 17.5989 27.8906 17.766 27.0781 18.1C26.2656 18.434 25.5479 18.9125 24.925 19.5354C24.2931 20.1673 23.8169 20.885 23.4964 21.6885C23.1759 22.492 23.0156 23.3406 23.0156 24.2344Z" fill="white"/>
    </g>
</svg>