<svg width="40" height="40" viewBox="0 0 40 40" fill="none" xmlns="http://www.w3.org/2000/svg">
<ellipse cx="19.6842" cy="19.5556" rx="19.6842" ry="19.5556" fill="#012206"/>
<mask id="mask0_35_64" style="mask-type:alpha" maskUnits="userSpaceOnUse" x="8" y="8" width="24" height="24">
<rect x="8" y="8" width="23.2632" height="23.1111" fill="#D9D9D9"/>
</mask>
<g mask="url(#mask0_35_64)">
<path d="M18.7226 28.1621V20.4824H18.6621C17.6395 20.4824 16.6569 20.2878 15.7142 19.8986C14.7716 19.5094 13.9367 18.9537 13.2098 18.2315C12.4828 17.5093 11.9275 16.6799 11.5438 15.7434C11.1601 14.8069 10.9683 13.8307 10.9683 12.8148V10.9491H12.8463C13.864 10.9491 14.8414 11.1437 15.7784 11.5329C16.7154 11.9221 17.5474 12.4778 18.2743 13.2C18.7832 13.7056 19.2073 14.2633 19.5466 14.8732C19.8858 15.483 20.1402 16.133 20.3099 16.8232C20.4068 16.6948 20.5098 16.5704 20.6188 16.45C20.7279 16.3297 20.843 16.2093 20.9642 16.0889C21.6911 15.3667 22.5259 14.811 23.4686 14.4218C24.4113 14.0326 25.3939 13.838 26.4165 13.838H28.2945V15.7037C28.2945 16.7196 28.0986 17.6958 27.7068 18.6323C27.3151 19.5688 26.7557 20.3982 26.0287 21.1204C25.3018 21.8426 24.471 22.3943 23.5363 22.7755C22.6017 23.1567 21.6232 23.3472 20.6007 23.3472H20.5401V28.1621H18.7226ZM18.7348 18.6528C18.7348 17.8584 18.5833 17.102 18.2804 16.3838C17.9775 15.6656 17.5474 15.0297 16.99 14.4759C16.4327 13.9222 15.7922 13.4969 15.0687 13.2C14.3451 12.9031 13.5841 12.7547 12.7857 12.7547C12.7857 13.5571 12.9311 14.3195 13.2219 15.0417C13.5127 15.7639 13.9367 16.4019 14.4941 16.9556C15.0676 17.5253 15.7178 17.9506 16.4448 18.2315C17.1718 18.5124 17.9351 18.6528 18.7348 18.6528ZM20.5401 21.5417C21.3385 21.5417 22.0995 21.3972 22.823 21.1084C23.5466 20.8195 24.1871 20.3982 24.7444 19.8445C25.3018 19.2908 25.7299 18.6528 26.0287 17.9306C26.3276 17.2084 26.477 16.446 26.477 15.6435C25.6693 15.6435 24.9019 15.792 24.175 16.0889C23.448 16.3858 22.8058 16.8111 22.2485 17.3648C21.683 17.9266 21.257 18.5645 20.9702 19.2787C20.6835 19.9929 20.5401 20.7472 20.5401 21.5417Z" fill="white"/>
</g>
</svg>
